<?xml version="1.0" standalone="no"?>
<!DOCTYPE svg PUBLIC "-//W3C//DTD SVG 20010904//EN"
 "http://www.w3.org/TR/2001/REC-SVG-20010904/DTD/svg10.dtd">
<svg version="1.0" xmlns="http://www.w3.org/2000/svg"
 width="512.000000pt" height="512.000000pt" viewBox="0 0 512.000000 512.000000"
 preserveAspectRatio="xMidYMid meet">

<g transform="translate(0.000000,512.000000) scale(0.100000,-0.100000)"
fill="#B5B6B7" stroke="none">
<path d="M957 5058 c-38 -50 -45 -64 -35 -74 7 -6 690 -553 1518 -1214 828
-661 1505 -1205 1505 -1210 0 -5 -677 -549 -1505 -1210 -828 -661 -1511 -1208
-1518 -1215 -11 -10 -4 -23 34 -71 26 -32 49 -60 50 -62 4 -6 3194 2549 3194
2558 0 7 -3185 2561 -3192 2560 -2 -1 -25 -29 -51 -62z"/>
</g>
</svg>
